# xmcd CD database file
#
# Track frame offsets:
#	150
#	20569
#	29569
#	49348
#	61081
#	72815
#	92148
#	106148
#	112815
#	135215
#	143748
#	157081
#	174148
#	190498
#	208831
#	228964
#	245498
#	261764
#	277764
#	290964
#	302831
#	323364
#	338298
#
# Disc length: 4802 seconds
#
# Revision: 1
# Processed by: cddbd v1.5.2PL0 Copyright (c) Steve Scherf et al.
# Submitted via: CDex 1.70beta2
#
DISCID=3e12c017
DTITLE=DJ FIXIE PRES. - In the City - Electro Beatz CD2
DYEAR=2007
DGENRE=Electro House
TTITLE0=001 - Proper Education AM 07erELH124.08# - Eric Prydz vs Pink Floyd
TTITLE1=002 - House Of God AM 07erELH132.00# - DJ Falk
TTITLE2=003 - Sheﾴs Got That Light (Elektrofachgeschaeft Mix)PP 07erELH126.00# - STRAIGHT FLUSH
TTITLE3=004 - Behind The Cow (Spencer And Hill Dub Mix) PP 07erELH126# - SCOOTER
TTITLE4=005 - King of My Castle (Extended DUB Mix) DJ Promotion CD Pool Tech Mix 80 07erELH126.73# - Yanou Feat. Liz
TTITLE5=006 - Take Control (Original Mix)AM 07erELH126.99# - Dirty Freaks
TTITLE6=007 - SHINING STAR (Pornocult vocal mix) AM 07erELH126.99# - Get Far
TTITLE7=008 - the Beat is Rocking AM 07erELH127.02# - Erik E
TTITLE8=009 - One Nation (Disco Boys Remix) DJ Promotion CD Pool Tech Mix 80 07erELH127.00# - Gardeweg and Lange
TTITLE9=010 - elektroﾠ Dance Express 701D 07erELH127.02# - Outwork Feat. Mr Gee
TTITLE10=011 - Freak Me (Andrea Doria Remix) Promo For UA DANCE PLUS 122 07erELH127.05# - Doria Vvs Lxr
TTITLE11=012 - Perfect (Exeeder)(A1 Vocal Club Mix)MoS 07erELH128# - Mason vs. Princess Superstar
TTITLE12=013 - Love to Love You Baby AM 07erELH128.01# - DAVID VENDETTA
TTITLE13=014 - Everybody Clap Your Hands (Original Mix) CD Pool - Club January 2007 07erELH127.98# - Red One
TTITLE14=015 - At Night (Extended Mix)PP 07erELH127.99# - Dave Spoon
TTITLE15=016 - What Is Love 07 (Club Mix)PP 07erELH127.99# - Speedmaster Project
TTITLE16=017 - Days of pearly spencer 04 (Electro Mix) 07erELH128# - 2 Clubbing
TTITLE17=018 - Electro Choc Part2 DoD 07erELH128.00# - Antoine Clamaran
TTITLE18=019 - Need You Tonight (Goodwill and Tommy Trash Remix) AM 07erELH128.00# - Anton Neumark
TTITLE19=020 - Going Back To My Roots (Electro Goldmix)PP 07erELH128.00# - BELMOND and PARKER FEAT. LINDA CLIFFORD
TTITLE20=021 - What You Do (Playing with Stones)  AM 07erELH125# - Big Bass Vs Michelle Narine
TTITLE21=022 - Everybody Movin AM 07erELH128.01# - Bob Sinclar
TTITLE22=023 - Superstar (Robbie Rivera Juicy AM 07erELH128.00# - Coburn Vs Robbie Rivera
EXTD=YEAR: 2007
EXTT0=
EXTT1=
EXTT2=
EXTT3=
EXTT4=
EXTT5=
EXTT6=
EXTT7=
EXTT8=
EXTT9=
EXTT10=
EXTT11=
EXTT12=
EXTT13=
EXTT14=
EXTT15=
EXTT16=
EXTT17=
EXTT18=
EXTT19=
EXTT20=
EXTT21=
EXTT22=
PLAYORDER=
